{"glyphs":{":":{"x_min":0,"x_max":131,"ha":131,"o":"m 104 33 q 104 17 93 5 q 82 -6 66 -6 q 50 -6 38 5 q 27 17 27 33 q 27 49 38 60 q 50 71 66 71 q 82 71 93 60 q 104 49 104 33 z m 104 334 q 104 318 93 307 q 82 295 66 295 q 50 295 38 307 q 27 318 27 334 q 27 350 38 361 q 50 373 66 373 q 82 373 93 361 q 104 350 104 334 z"},"$":{"x_min":0,"x_max":522,"ha":522,"o":"m 283 372 l 283 84 q 326 90 358 123 q 399 164 399 222 q 399 279 358 319 q 327 352 283 372 z m 244 612 q 217 608 197 587 q 171 562 171 524 q 171 487 197 461 q 215 443 244 427 z m 244 387 q 199 406 170 435 q 133 472 133 524 q 133 576 170 613 q 202 645 244 649 l 244 693 l 283 693 l 283 648 q 321 642 350 613 q 370 594 378 567 l 345 553 q 337 573 323 588 q 305 605 283 611 l 283 411 q 342 388 384 345 q 436 294 436 222 q 436 148 384 97 q 341 53 283 46 l 283 -2 l 244 -2 l 244 46 q 182 51 136 97 q 95 138 86 194 l 121 208 q 126 158 162 123 q 197 88 244 83 z"},"?":{"x_min":0,"x_max":367,"ha":367,"o":"m 170 33 q 170 17 159 5 q 147 -6 132 -6 q 116 -6 104 5 q 93 17 93 33 q 93 49 104 60 q 116 71 132 71 q 147 71 159 60 q 170 49 170 33 z m 104 164 q 104 170 104 177 q 104 273 176 362 q 262 468 274 513 q 279 530 279 546 q 279 572 268 593 q 249 629 207 644 q 188 651 170 651 q 147 651 125 641 q 84 622 69 580 q 63 564 63 534 l 25 532 q 25 572 33 592 q 59 654 117 677 q 146 688 174 688 q 203 688 231 677 q 288 654 308 599 q 318 572 318 545 q 318 519 308 493 q 288 441 210 345 q 142 260 142 183 q 142 173 143 164 z"},"<":{"x_min":0,"x_max":522,"ha":522,"o":"m 126 377 l 479 214 l 479 169 l 43 377 l 479 585 l 479 540 z"},"'":{"x_min":0,"x_max":93,"ha":93,"o":"m 27 430 l 27 689 l 66 689 l 66 430 z"},"=":{"x_min":0,"x_max":522,"ha":522,"o":"m 42 417 l 481 417 l 481 378 l 42 378 z m 43 279 l 479 279 l 479 240 l 43 240 z"},"a":{"x_min":0,"x_max":548,"ha":548,"o":"m 504 0 l 465 0 l 465 86 q 454 71 441 58 q 372 -12 273 -12 q 175 -12 106 57 q 36 127 36 225 q 36 323 106 393 q 175 462 273 462 q 372 462 441 393 q 454 379 465 364 l 465 424 l 504 424 z m 465 187 l 465 263 q 455 320 412 363 q 354 421 273 421 q 192 421 135 363 q 77 306 77 225 q 77 144 135 86 q 192 29 273 29 q 354 29 412 87 q 455 130 465 187 z"},"L":{"x_min":0,"x_max":382,"ha":382,"o":"m 55 0 l 55 690 l 94 690 l 94 39 l 357 39 l 357 0 z"},"3":{"x_min":0,"x_max":522,"ha":522,"o":"m 237 385 l 205 386 l 205 425 q 245 425 270 435 q 296 445 326 477 q 356 509 356 553 q 356 598 325 628 q 294 659 250 659 q 207 659 175 628 q 158 611 149 589 l 112 604 q 122 634 146 657 q 189 700 250 700 q 312 700 354 656 q 397 613 397 553 q 397 492 365 457 q 332 421 303 410 q 366 389 407 345 q 466 282 466 197 q 466 111 406 51 q 345 -9 260 -9 q 175 -9 114 51 q 66 100 57 165 l 96 179 q 102 121 144 80 q 192 32 260 32 q 329 32 377 80 q 425 128 425 197 q 425 265 378 316 q 331 368 237 385 z"},";":{"x_min":0,"x_max":143,"ha":143,"o":"m 116 72 l 36 -95 l 0 -95 l 44 72 z m 116 334 q 116 318 105 307 q 93 295 78 295 q 62 295 50 307 q 39 318 39 334 q 39 350 50 361 q 62 373 78 373 q 93 373 105 361 q 116 350 116 334 z"},"J":{"x_min":0,"x_max":149,"ha":149,"o":"m 94 -13 q 94 -66 58 -100 q 22 -134 -30 -134 l -30 -99 q 6 -99 31 -74 q 55 -50 55 -8 l 55 690 l 94 690 z"},"V":{"x_min":0,"x_max":520,"ha":520,"o":"m 479 690 l 520 690 l 272 0 l 248 0 l 0 690 l 41 690 l 260 70 z"},"\"":{"x_min":0,"x_max":194,"ha":194,"o":"m 27 430 l 27 689 l 66 689 l 66 430 z m 128 430 l 128 689 l 167 689 l 167 430 z"},"7":{"x_min":0,"x_max":522,"ha":522,"o":"m 373 451 q 284 324 228 206 q 171 86 167 0 l 126 0 q 130 104 190 225 q 249 346 327 459 q 404 573 420 651 l 58 651 l 58 690 l 464 690 q 462 578 373 451 z"},"S":{"x_min":0,"x_max":460,"ha":460,"o":"m 242 382 q 168 407 125 449 q 83 492 83 553 q 83 613 125 656 q 168 699 229 699 q 289 699 333 656 q 356 633 365 604 l 330 591 q 322 612 305 629 q 273 661 229 661 q 185 661 153 629 q 122 598 122 553 q 122 509 153 477 q 182 448 234 424 q 317 397 374 341 q 433 281 433 197 q 433 112 373 52 q 313 -8 229 -8 q 144 -8 84 52 q 36 100 27 164 l 63 177 q 69 121 111 79 q 160 30 229 30 q 298 30 347 79 q 396 128 396 197 q 396 265 347 314 q 304 357 242 382 z"},"}":{"x_min":0,"x_max":252,"ha":252,"o":"m 208 348 q 139 333 139 189 l 139 173 q 139 -42 27 -55 l 27 -26 q 103 -6 103 181 l 103 202 q 103 313 148 351 q 103 388 103 500 l 103 520 q 103 707 27 727 l 27 756 q 139 744 139 528 l 139 512 q 139 368 208 354 z"},"Z":{"x_min":0,"x_max":525,"ha":525,"o":"m 417 651 l 90 651 l 90 690 l 484 690 l 107 39 l 518 39 l 518 0 l 41 0 z"},"x":{"x_min":0,"x_max":323,"ha":323,"o":"m 139 224 l 15 424 l 60 424 l 162 260 l 263 424 l 309 424 l 184 224 l 323 0 l 278 0 l 162 188 l 45 0 l 0 0 z"},")":{"x_min":0,"x_max":270,"ha":270,"o":"m 70 724 q 107 698 140 661 q 243 542 243 336 q 243 130 140 12 q 107 -26 70 -52 l 27 -52 q 67 -27 118 40 q 191 140 191 314 l 191 358 q 191 533 118 632 q 67 700 27 724 z"},"&":{"x_min":0,"x_max":570,"ha":570,"o":"m 398 143 q 393 145 387 148 q 367 160 335 192 q 315 211 306 216 q 297 221 287 221 q 282 221 276 220 q 261 215 253 202 q 248 192 248 183 q 248 177 249 172 q 253 156 266 149 q 274 145 289 145 q 296 145 306 146 l 302 111 q 292 108 281 108 q 264 108 247 117 q 221 131 213 162 q 210 172 210 183 q 210 202 220 220 q 236 247 267 255 q 277 258 288 258 q 307 258 324 248 q 341 239 369 209 q 394 187 406 180 q 419 173 433 173 q 440 173 448 175 q 471 181 482 202 q 490 215 490 229 q 490 236 487 244 q 481 266 461 277 q 449 284 434 284 q 423 284 411 281 l 411 319 q 423 323 435 323 q 458 323 479 310 q 513 291 523 254 q 527 241 527 229 q 527 205 515 184 q 496 150 458 139 q 446 136 436 136 q 422 89 385 52 q 325 -8 240 -8 q 156 -8 96 52 q 36 112 36 197 q 36 281 95 344 q 135 388 200 410 q 169 423 136 458 q 104 492 104 553 q 104 613 147 656 q 189 699 250 699 q 311 699 354 656 q 377 633 386 604 l 352 591 q 344 612 326 629 q 294 661 250 661 q 206 661 174 629 q 143 598 143 553 q 143 509 173 476 q 204 444 229 434 q 255 424 294 424 l 294 387 l 263 387 q 168 369 121 317 q 74 265 74 197 q 74 128 122 79 q 171 30 240 30 q 309 30 357 79 q 386 107 398 143 z"},"_":{"x_min":0,"x_max":388,"ha":388,"o":"m -22 -13 l 410 -13 l 410 -52 l -22 -52 z"},"v":{"x_min":0,"x_max":397,"ha":397,"o":"m 397 424 l 208 0 l 188 0 l 0 424 l 45 424 l 198 71 l 352 424 z"},"O":{"x_min":0,"x_max":769,"ha":769,"o":"m 739 346 q 739 199 635 95 q 531 -8 384 -8 q 238 -8 134 95 q 30 199 30 346 q 30 493 134 596 q 238 700 384 700 q 531 700 635 596 q 739 493 739 346 z m 384 661 q 254 661 162 568 q 70 476 70 346 q 70 216 162 124 q 254 31 384 31 q 515 31 607 124 q 699 216 699 346 q 699 476 607 568 q 515 661 384 661 z"},"(":{"x_min":0,"x_max":270,"ha":270,"o":"m 243 724 q 202 700 152 632 q 79 533 79 358 l 79 314 q 79 140 152 40 q 202 -27 243 -52 l 199 -52 q 162 -26 130 12 q 27 130 27 336 q 27 542 130 661 q 162 698 199 724 z"},"C":{"x_min":0,"x_max":658,"ha":658,"o":"m 598 110 l 627 83 q 526 -8 390 -8 q 243 -8 139 95 q 36 198 36 345 q 36 491 139 595 q 243 699 390 699 q 526 699 627 606 l 598 580 q 509 659 390 659 q 260 659 168 567 q 76 475 76 345 q 76 215 168 123 q 260 31 390 31 q 509 31 598 110 z"},"W":{"x_min":0,"x_max":782,"ha":782,"o":"m 402 507 l 574 63 l 743 690 l 782 690 l 597 0 l 558 0 l 391 437 l 225 0 l 186 0 l 0 690 l 40 690 l 208 63 l 380 507 z"},"A":{"x_min":0,"x_max":545,"ha":545,"o":"m 378 342 l 273 632 l 167 342 z m 293 690 l 543 0 l 502 0 l 392 304 l 153 304 l 41 0 l 0 0 l 253 690 z"},"f":{"x_min":0,"x_max":187,"ha":187,"o":"m 93 385 l 93 0 l 54 0 l 54 385 l 11 385 l 11 424 l 54 424 l 54 539 q 57 586 90 621 q 126 654 172 654 q 196 654 223 645 l 211 610 q 193 618 176 618 q 146 618 118 593 q 94 569 93 536 l 93 424 l 179 424 l 179 385 z"},"Q":{"x_min":0,"x_max":769,"ha":769,"o":"m 384 661 q 254 661 162 568 q 70 476 70 346 q 70 216 162 124 q 254 31 384 31 q 515 31 607 124 q 699 216 699 346 q 699 476 607 568 q 515 661 384 661 z m 380 -8 q 236 -7 134 96 q 30 199 30 346 q 30 493 134 596 q 238 700 384 700 q 531 700 635 596 q 739 493 739 346 q 739 199 635 96 q 560 21 463 0 q 499 -10 552 -43 q 588 -63 626 -68 q 679 -67 684 -10 l 723 -10 q 711 -94 636 -100 q 574 -100 520 -67 q 459 -35 424 -33 q 391 -35 375 -50 q 359 -64 353 -84 q 348 -104 347 -109 l 308 -109 q 321 -24 380 -8 z"},"w":{"x_min":0,"x_max":534,"ha":534,"o":"m 534 424 l 390 0 l 366 0 l 267 276 l 168 0 l 144 0 l 0 424 l 44 424 l 157 76 l 256 352 l 278 352 l 378 76 l 490 424 z"},"-":{"x_min":0,"x_max":291,"ha":291,"o":"m 23 275 l 268 275 l 268 236 l 23 236 z"},"E":{"x_min":0,"x_max":455,"ha":455,"o":"m 400 690 l 400 651 l 94 651 l 94 365 l 400 365 l 400 326 l 94 326 l 94 39 l 400 39 l 400 0 l 55 0 l 55 690 z"},"s":{"x_min":0,"x_max":314,"ha":314,"o":"m 158 228 q 109 254 90 273 q 60 303 60 345 q 60 387 90 417 q 120 447 162 447 q 204 447 231 419 q 258 393 258 358 l 258 356 l 225 342 q 220 375 204 392 q 188 408 162 408 q 136 408 117 390 q 99 371 99 345 q 99 319 117 301 q 128 290 163 268 q 218 238 241 214 q 278 177 278 126 q 278 73 241 36 q 205 0 152 0 q 100 0 63 36 q 27 73 27 117 l 65 127 q 65 89 91 64 q 117 38 152 38 q 188 38 214 64 q 240 89 240 126 q 240 162 214 187 q 200 201 158 228 z"},">":{"x_min":0,"x_max":522,"ha":522,"o":"m 43 540 l 43 585 l 479 377 l 43 169 l 43 214 l 396 377 z"},"l":{"x_min":0,"x_max":146,"ha":146,"o":"m 93 690 l 93 0 l 54 0 l 54 690 z"},"8":{"x_min":0,"x_max":522,"ha":522,"o":"m 262 32 q 357 37 400 82 q 444 128 444 197 q 444 265 397 316 q 351 366 261 384 q 171 366 125 316 q 78 265 78 197 q 78 128 122 82 q 165 37 262 32 z m 261 -4 q 148 -4 93 53 q 38 111 38 197 q 38 282 97 345 q 138 389 200 410 q 171 421 139 457 q 106 492 106 553 q 106 613 149 655 q 191 697 263 698 q 331 697 374 655 q 417 613 417 553 q 417 492 384 457 q 351 421 322 410 q 384 389 425 345 q 484 282 484 197 q 484 111 429 53 q 374 -4 261 -4 z m 261 659 q 195 654 171 626 q 147 598 147 553 q 147 509 177 477 q 207 445 261 428 q 315 445 345 477 q 375 509 375 553 q 375 598 351 626 q 328 654 262 659 z"},"\\":{"x_min":0,"x_max":306,"ha":306,"o":"m 332 0 l 288 0 l -25 690 l 19 690 z"},"e":{"x_min":0,"x_max":509,"ha":509,"o":"m 75 286 l 447 286 q 434 331 401 363 q 343 421 262 421 q 181 421 124 363 q 89 329 75 286 z m 68 247 q 66 236 66 225 q 66 144 124 86 q 181 29 262 29 q 343 29 401 87 q 411 97 419 107 l 461 93 q 454 81 430 58 q 361 -12 262 -12 q 165 -12 95 57 q 25 127 25 225 q 25 323 95 393 q 165 462 262 462 q 361 462 430 393 q 491 331 491 247 z"},"b":{"x_min":0,"x_max":552,"ha":552,"o":"m 48 690 l 87 690 l 87 364 q 98 379 112 393 q 181 462 279 462 q 377 462 447 393 q 516 323 516 225 q 516 127 447 57 q 377 -12 279 -12 q 181 -12 112 58 q 98 71 87 86 l 87 0 l 48 0 z m 87 265 l 87 184 q 98 129 141 87 q 198 29 279 29 q 360 29 418 86 q 475 144 475 225 q 475 306 418 363 q 360 421 279 421 q 198 421 141 363 q 98 321 87 265 z"},"%":{"x_min":0,"x_max":522,"ha":522,"o":"m 475 567 l 79 1 l 47 23 l 443 589 z m 231 424 q 231 383 202 354 q 173 325 132 325 q 90 325 61 354 q 32 383 32 424 q 32 466 61 495 q 90 524 132 524 q 173 524 202 495 q 231 466 231 424 z m 132 487 q 106 487 88 469 q 70 450 70 424 q 70 398 88 380 q 106 362 132 362 q 157 362 176 380 q 194 398 194 424 q 194 450 176 469 q 157 487 132 487 z m 490 166 q 490 124 461 95 q 432 66 391 66 q 349 66 320 95 q 291 124 291 166 q 291 207 320 236 q 349 265 391 265 q 432 265 461 236 q 490 207 490 166 z m 391 228 q 365 228 347 210 q 329 191 329 166 q 329 140 347 122 q 365 104 391 104 q 416 104 435 122 q 453 140 453 166 q 453 191 435 210 q 416 228 391 228 z"},"m":{"x_min":0,"x_max":561,"ha":561,"o":"m 48 424 l 87 424 l 87 414 q 124 449 174 449 q 226 449 263 412 q 272 402 280 391 q 288 402 298 412 q 334 449 387 449 q 439 449 476 412 q 510 376 512 327 l 512 0 l 473 0 l 473 327 l 474 327 q 472 361 448 384 q 422 410 387 410 q 351 410 325 384 q 299 359 299 321 l 299 0 l 261 0 l 261 327 l 261 327 q 259 361 235 384 q 209 410 174 410 q 138 410 113 384 q 90 362 87 331 l 87 0 l 48 0 z"},"#":{"x_min":0,"x_max":444,"ha":444,"o":"m 243 218 l 133 218 l 92 49 l 55 49 l 97 218 l -10 218 l 10 257 l 106 257 l 145 413 l 47 413 l 68 452 l 154 452 l 197 627 l 234 627 l 191 452 l 301 452 l 344 627 l 380 627 l 337 452 l 434 452 l 414 413 l 328 413 l 290 257 l 376 257 l 356 218 l 280 218 l 238 49 l 202 49 z m 143 257 l 253 257 l 292 413 l 182 413 z"},",":{"x_min":0,"x_max":164,"ha":164,"o":"m 116 72 l 36 -95 l 0 -95 l 44 72 z"},"n":{"x_min":0,"x_max":429,"ha":429,"o":"m 87 329 l 87 0 l 48 0 l 48 424 l 87 424 l 87 396 q 140 449 210 449 q 286 449 333 402 q 380 355 381 284 l 381 0 l 342 0 l 342 280 q 342 334 303 372 q 264 410 210 410 q 157 410 118 373 q 97 352 87 329 z"},"h":{"x_min":0,"x_max":419,"ha":419,"o":"m 46 690 l 85 690 l 85 402 q 134 449 203 449 q 278 449 325 402 q 372 355 374 284 l 374 0 l 334 0 l 334 280 q 334 334 295 372 q 256 410 203 410 q 149 410 111 373 q 93 355 85 337 l 85 0 l 46 0 z"},"z":{"x_min":0,"x_max":363,"ha":363,"o":"m 249 379 l 30 379 l 30 417 l 316 417 l 97 39 l 333 39 l 333 0 l 30 0 z"},"B":{"x_min":0,"x_max":504,"ha":504,"o":"m 253 39 q 330 39 384 94 q 438 148 438 225 q 438 302 384 357 q 330 412 253 412 l 94 412 l 94 39 z m 94 652 l 94 451 l 270 451 q 312 455 333 476 q 363 506 363 549 q 363 591 333 622 q 303 652 260 652 z m 343 433 q 381 417 413 385 q 479 319 479 225 q 479 132 413 66 q 358 11 279 0 l 55 0 l 55 690 l 261 690 q 320 690 361 649 q 402 607 402 549 q 402 490 361 449 q 352 439 343 433 z"},"K":{"x_min":0,"x_max":488,"ha":488,"o":"m 372 690 l 193 431 l 495 0 l 447 0 l 168 399 l 94 292 l 94 0 l 55 0 l 55 690 l 94 690 l 94 360 l 325 690 z"},"R":{"x_min":0,"x_max":468,"ha":468,"o":"m 94 651 l 94 279 l 211 279 q 288 279 342 333 q 397 388 397 465 q 397 542 342 597 q 288 651 211 651 z m 223 239 l 94 239 l 94 0 l 55 0 l 55 690 l 236 690 q 315 680 370 625 q 436 558 436 465 q 436 372 370 306 q 324 260 265 246 l 424 0 l 376 0 z"},"T":{"x_min":0,"x_max":419,"ha":419,"o":"m 229 651 l 229 0 l 190 0 l 190 651 l 16 651 l 16 690 l 404 690 l 404 651 z"},"P":{"x_min":0,"x_max":468,"ha":468,"o":"m 94 239 l 94 0 l 55 0 l 55 690 l 236 690 q 315 680 370 625 q 436 558 436 465 q 436 372 370 305 q 304 239 211 239 z m 94 651 l 94 279 l 211 279 q 288 279 342 333 q 397 388 397 465 q 397 542 342 597 q 288 651 211 651 z"},"|":{"x_min":0,"x_max":234,"ha":234,"o":"m 137 690 l 137 -62 l 98 -62 l 98 690 z"},"t":{"x_min":0,"x_max":243,"ha":243,"o":"m 102 424 l 102 604 l 141 604 l 141 424 l 227 424 l 227 385 l 141 385 l 141 0 l 102 0 l 102 385 l 16 385 l 16 424 z"},"M":{"x_min":0,"x_max":704,"ha":704,"o":"m 659 690 l 659 0 l 620 0 l 620 648 l 353 298 l 85 648 l 85 0 l 46 0 l 46 690 l 103 690 l 353 363 l 602 690 z"},"g":{"x_min":0,"x_max":529,"ha":529,"o":"m 454 265 q 443 321 401 363 q 343 421 262 421 q 181 421 124 363 q 66 306 66 225 q 66 144 124 86 q 181 29 262 29 q 343 29 401 86 q 442 128 454 184 z m 454 84 q 442 70 430 58 q 361 -12 262 -12 q 165 -12 95 57 q 25 127 25 225 q 25 323 95 392 q 165 461 262 461 q 361 461 430 393 q 443 379 455 364 l 455 424 l 494 424 l 494 95 q 494 -1 426 -68 q 356 -138 258 -138 q 160 -138 90 -68 q 76 -54 65 -39 l 106 -24 q 112 -32 120 -39 q 177 -97 258 -97 q 339 -97 396 -39 q 449 13 454 84 z"},"j":{"x_min":0,"x_max":139,"ha":139,"o":"m -5 -60 q 47 -54 47 -1 l 47 424 l 85 424 l 85 0 q 85 -87 -5 -95 z m 105 536 q 105 519 94 508 q 82 497 66 497 q 50 497 39 508 q 27 519 27 536 q 27 551 39 562 q 50 574 66 574 q 82 574 94 562 q 105 551 105 536 z"},"i":{"x_min":0,"x_max":155,"ha":155,"o":"m 97 424 l 97 0 l 58 0 l 58 424 z m 116 536 q 116 519 105 508 q 93 497 78 497 q 62 497 50 508 q 39 519 39 536 q 39 551 50 562 q 62 574 78 574 q 93 574 105 562 q 116 551 116 536 z"},"y":{"x_min":0,"x_max":380,"ha":380,"o":"m 100 -161 l 57 -161 l 168 79 l 7 424 l 51 424 l 190 128 l 330 424 l 373 424 z"},"@":{"x_min":0,"x_max":755,"ha":755,"o":"m 515 297 l 519 364 q 512 403 485 432 q 445 474 386 474 q 327 474 283 432 q 239 390 235 322 q 235 269 272 230 q 311 188 371 188 q 430 188 474 229 q 504 259 515 297 z m 510 210 q 444 145 367 145 q 291 145 239 200 q 190 250 190 319 q 196 408 253 462 q 311 517 388 517 q 464 517 523 452 l 526 510 l 567 510 l 540 267 l 540 254 q 540 193 562 189 q 605 192 645 237 q 684 282 690 397 q 690 491 618 563 q 540 641 395 641 q 266 641 170 549 q 74 458 66 311 q 66 195 146 111 q 232 20 360 20 q 448 20 490 45 l 517 14 q 454 -21 358 -21 q 213 -21 115 82 q 24 177 24 308 q 33 475 142 578 q 251 682 397 682 q 560 682 648 593 q 731 509 731 404 q 725 276 670 217 q 621 162 559 162 q 509 167 509 202 q 509 206 510 210 z"},".":{"x_min":0,"x_max":131,"ha":131,"o":"m 104 33 q 104 17 93 5 q 82 -6 66 -6 q 50 -6 38 5 q 27 17 27 33 q 27 49 38 60 q 50 71 66 71 q 82 71 93 60 q 104 49 104 33 z"},"p":{"x_min":0,"x_max":542,"ha":542,"o":"m 45 424 l 84 424 l 84 364 q 95 379 108 393 q 178 461 276 461 q 374 461 443 392 q 513 323 513 225 q 513 127 443 57 q 374 -12 276 -12 q 178 -12 108 58 q 95 71 84 86 l 84 -162 l 45 -162 z m 84 265 l 84 184 q 95 128 137 86 q 195 29 276 29 q 357 29 414 86 q 472 144 472 225 q 472 306 414 363 q 357 421 276 421 q 195 421 137 363 q 95 321 84 265 z"},"X":{"x_min":0,"x_max":497,"ha":497,"o":"m 7 0 l 226 379 l 46 690 l 91 690 l 248 417 l 406 690 l 450 690 l 270 379 l 490 0 l 445 0 l 248 341 l 51 0 z"},"*":{"x_min":0,"x_max":356,"ha":356,"o":"m 198 597 l 297 650 l 320 618 l 212 560 l 320 501 l 297 469 l 198 522 l 198 430 l 159 430 l 159 522 l 59 469 l 37 501 l 145 560 l 37 618 l 59 650 l 159 597 l 159 689 l 198 689 z"},"Y":{"x_min":0,"x_max":545,"ha":545,"o":"m 253 279 l 16 690 l 60 690 l 272 322 l 485 690 l 529 690 l 292 279 l 292 0 l 253 0 z"},"c":{"x_min":0,"x_max":481,"ha":481,"o":"m 415 102 l 456 87 q 444 72 430 58 q 361 -12 262 -12 q 165 -12 95 57 q 25 127 25 225 q 25 323 95 393 q 165 462 262 462 q 361 462 430 393 q 444 378 456 363 l 415 348 q 408 356 401 364 q 343 421 262 421 q 182 421 124 364 q 67 306 67 225 q 67 144 124 87 q 182 29 262 29 q 343 29 401 87 q 408 94 415 102 z"},"!":{"x_min":0,"x_max":131,"ha":131,"o":"m 104 33 q 104 17 93 5 q 82 -6 66 -6 q 50 -6 38 5 q 27 17 27 33 q 27 49 38 60 q 50 71 66 71 q 82 71 93 60 q 104 49 104 33 z m 84 690 l 84 119 l 45 119 l 45 690 z"},"/":{"x_min":0,"x_max":306,"ha":306,"o":"m 287 690 l 332 690 l 19 0 l -25 0 z"},"[":{"x_min":0,"x_max":188,"ha":188,"o":"m 66 -20 l 161 -20 l 161 -58 l 27 -58 l 27 755 l 161 755 l 161 716 l 66 716 z"},"6":{"x_min":0,"x_max":522,"ha":522,"o":"m 110 182 q 110 120 155 76 q 199 32 261 32 q 323 32 367 76 q 412 120 412 182 q 412 245 367 289 q 323 333 261 333 q 199 333 155 289 q 110 245 110 182 z m 145 335 q 195 375 261 375 q 341 375 397 318 q 453 262 453 182 q 453 103 397 47 q 341 -10 261 -10 q 182 -10 126 47 q 69 103 69 182 q 74 293 133 415 q 192 536 296 690 l 348 690 q 228 514 145 335 z"},"r":{"x_min":0,"x_max":198,"ha":198,"o":"m 198 390 q 157 383 117 337 q 77 291 77 243 l 77 0 l 38 0 l 38 424 l 77 424 l 77 332 q 101 396 177 427 z"},"2":{"x_min":0,"x_max":522,"ha":522,"o":"m 83 0 q 354 414 375 450 q 396 487 396 521 q 396 538 392 555 q 380 608 334 637 q 301 657 266 657 q 250 657 235 653 q 182 641 153 595 q 137 570 134 545 l 94 551 q 97 583 118 616 q 157 677 226 693 q 247 698 267 698 q 314 698 357 671 q 417 633 433 564 q 439 539 439 516 q 439 475 416 433 q 393 392 160 39 l 439 39 l 439 0 z"},"{":{"x_min":0,"x_max":252,"ha":252,"o":"m 44 354 q 113 368 113 512 l 113 528 q 113 744 225 756 l 225 727 q 149 707 149 520 l 149 500 q 149 388 104 351 q 149 313 149 202 l 149 181 q 149 -6 225 -26 l 225 -55 q 113 -42 113 173 l 113 189 q 113 333 44 348 z"},"9":{"x_min":0,"x_max":522,"ha":522,"o":"m 412 508 q 412 571 367 615 q 323 658 261 658 q 199 658 155 615 q 110 571 110 508 q 110 446 155 402 q 199 357 261 357 q 323 357 367 402 q 412 446 412 508 z m 377 355 q 327 316 261 316 q 181 316 125 372 q 69 428 69 508 q 69 587 125 644 q 181 700 261 700 q 340 700 396 644 q 453 587 453 500 q 448 397 389 276 q 330 155 226 0 l 174 0 q 294 167 377 355 z"}," ":{"x_min":0,"x_max":248,"ha":248,"o":""},"I":{"x_min":0,"x_max":158,"ha":158,"o":"m 99 690 l 99 0 l 60 0 l 60 690 z"},"H":{"x_min":0,"x_max":523,"ha":523,"o":"m 85 326 l 85 0 l 46 0 l 46 690 l 85 690 l 85 365 l 438 365 l 438 690 l 478 690 l 478 0 l 438 0 l 438 326 z"},"4":{"x_min":0,"x_max":522,"ha":522,"o":"m 390 720 l 390 216 l 456 216 l 456 178 l 390 178 l 390 0 l 351 0 l 351 178 l 66 178 z m 351 582 l 133 216 l 351 216 z"},"~":{"x_min":0,"x_max":516,"ha":516,"o":"m 258 372 q 339 324 376 324 q 382 324 387 326 q 420 335 434 369 q 440 385 440 402 l 479 396 q 478 375 470 354 q 450 306 402 291 q 392 287 378 287 q 333 287 258 330 q 176 376 140 376 q 134 376 129 375 q 96 365 83 332 q 76 315 76 299 l 37 305 q 38 326 46 347 q 66 395 114 411 q 125 414 138 414 q 183 414 258 372 z"},"D":{"x_min":0,"x_max":581,"ha":581,"o":"m 183 690 q 353 689 447 595 q 550 491 550 345 q 550 198 447 95 q 353 1 183 0 l 55 0 l 55 690 z m 94 650 l 94 40 l 182 40 q 331 40 417 123 q 509 215 509 345 q 509 475 417 567 q 331 650 182 650 z"},"^":{"x_min":0,"x_max":407,"ha":407,"o":"m 226 690 l 359 460 l 314 460 l 204 651 l 93 460 l 48 460 l 181 690 z"},"0":{"x_min":0,"x_max":522,"ha":522,"o":"m 457 339 q 457 486 400 567 q 342 649 261 649 q 180 649 123 567 q 65 486 65 339 q 65 192 123 111 q 180 29 261 29 q 342 29 400 111 q 457 192 457 339 z m 498 339 q 498 176 429 82 q 360 -12 262 -12 q 164 -12 94 82 q 24 176 24 339 q 24 502 94 596 q 164 690 262 690 q 360 690 429 596 q 498 502 498 339 z"},"F":{"x_min":0,"x_max":382,"ha":382,"o":"m 357 690 l 357 651 l 94 651 l 94 365 l 357 365 l 357 326 l 94 326 l 94 0 l 55 0 l 55 690 z"},"`":{"x_min":0,"x_max":215,"ha":215,"o":"m 108 555 l 179 475 l 142 475 l 37 555 z"},"k":{"x_min":0,"x_max":310,"ha":310,"o":"m 255 424 l 150 294 l 317 0 l 269 0 l 125 263 l 87 216 l 87 0 l 48 0 l 48 604 l 87 604 l 87 278 l 205 424 z"},"u":{"x_min":0,"x_max":430,"ha":430,"o":"m 217 -6 q 138 -6 91 41 q 44 88 42 160 l 42 424 l 82 424 l 82 163 q 82 109 121 71 q 159 33 217 33 q 271 33 309 71 q 348 109 348 163 l 348 424 l 387 424 l 387 160 q 386 88 339 41 q 292 -6 217 -6 z"},"]":{"x_min":0,"x_max":188,"ha":188,"o":"m 122 716 l 27 716 l 27 755 l 161 755 l 161 -58 l 27 -58 l 27 -20 l 122 -20 z"},"U":{"x_min":0,"x_max":560,"ha":560,"o":"m 466 690 l 505 690 l 505 194 q 495 115 439 60 q 374 -6 280 -6 q 187 -6 121 60 q 55 126 55 219 l 55 690 l 94 690 l 94 219 q 94 143 148 88 q 203 33 280 33 q 357 33 412 88 q 466 143 466 219 z"},"o":{"x_min":0,"x_max":544,"ha":544,"o":"m 272 462 q 371 462 440 393 q 509 323 509 225 q 509 127 440 57 q 371 -12 272 -12 q 174 -12 105 57 q 35 127 35 225 q 35 323 105 393 q 174 462 272 462 z m 76 225 q 76 144 134 86 q 191 29 272 29 q 353 29 410 86 q 468 144 468 225 q 468 306 410 363 q 353 421 272 421 q 191 421 134 363 q 76 306 76 225 z"},"N":{"x_min":0,"x_max":654,"ha":654,"o":"m 103 690 l 562 47 l 562 690 l 601 690 l 601 0 l 541 0 l 92 628 l 92 0 l 53 0 l 53 690 z"},"+":{"x_min":0,"x_max":522,"ha":522,"o":"m 242 309 l 42 309 l 42 348 l 242 348 l 242 548 l 281 548 l 281 348 l 481 348 l 481 309 l 281 309 l 281 109 l 242 109 z"},"G":{"x_min":0,"x_max":664,"ha":664,"o":"m 625 86 q 526 -8 390 -8 q 243 -8 139 95 q 36 198 36 345 q 36 491 139 595 q 243 699 390 699 q 526 699 627 606 l 598 580 q 509 659 390 659 q 260 659 168 567 q 76 475 76 345 q 76 215 168 123 q 260 31 390 31 q 501 31 586 100 l 586 310 l 625 310 z"},"q":{"x_min":0,"x_max":541,"ha":541,"o":"m 498 -162 l 458 -162 l 458 86 q 447 71 434 58 q 365 -12 266 -12 q 168 -12 99 57 q 29 127 29 225 q 29 323 99 392 q 168 461 266 461 q 365 461 434 393 q 447 379 458 364 l 458 424 l 498 424 z m 458 187 l 458 263 q 448 320 405 363 q 347 421 266 421 q 185 421 128 363 q 70 306 70 225 q 70 144 128 86 q 185 29 266 29 q 347 29 405 86 q 448 129 458 187 z"},"d":{"x_min":0,"x_max":548,"ha":548,"o":"m 504 0 l 465 0 l 465 86 q 454 71 441 58 q 372 -12 273 -12 q 175 -12 106 57 q 36 127 36 225 q 36 323 106 393 q 175 462 273 462 q 372 462 441 393 q 454 379 465 364 l 465 690 l 504 690 z m 465 187 l 465 263 q 455 320 412 363 q 354 421 273 421 q 192 421 135 363 q 77 306 77 225 q 77 144 135 86 q 192 29 273 29 q 354 29 412 87 q 455 130 465 187 z"},"1":{"x_min":0,"x_max":522,"ha":522,"o":"m 244 39 l 244 613 l 172 566 l 142 588 l 282 690 l 282 39 l 432 39 l 432 0 l 90 0 l 90 39 z"},"5":{"x_min":0,"x_max":522,"ha":522,"o":"m 113 476 q 134 483 161 489 q 188 494 214 494 q 262 494 306 479 q 403 445 451 356 q 480 300 480 242 q 480 206 469 169 q 439 72 350 24 q 295 -5 238 -5 q 201 -5 163 7 q 85 31 42 91 l 69 121 q 106 67 175 46 q 207 36 236 36 q 285 36 331 61 q 405 100 430 181 q 440 212 440 243 q 440 291 415 337 q 375 411 294 439 q 259 452 218 452 q 163 452 96 431 l 65 458 l 144 676 l 144 690 l 360 690 l 360 651 l 177 651 z"}}}
